<svg width="47" height="47" viewBox="0 0 47 47" fill="none" xmlns="http://www.w3.org/2000/svg">
<path d="M19.2744 32.8703C16.2021 29.7992 16.9571 25.6974 19.1778 23.6203C21.5055 21.4427 25.1592 21.3656 27.5614 23.393C29.7637 25.2519 31.0334 29.4974 27.7181 32.8769C28.5881 32.8599 29.4032 32.9239 30.2013 33.1642C33.1692 34.0604 35.2161 36.7814 35.2213 39.8735C35.2252 41.91 35.2226 43.9478 35.2213 45.9844C35.2213 46.6179 34.9561 46.9497 34.4532 46.9576C33.9307 46.9654 33.659 46.6284 33.659 45.9635C33.6577 43.991 33.6708 42.0197 33.6551 40.0472C33.6342 37.3405 31.953 35.2112 29.3588 34.5907C28.899 34.481 28.4287 34.4405 27.9546 34.4405C24.988 34.4431 22.0228 34.4379 19.0563 34.4431C15.7031 34.4483 13.3283 36.8154 13.3205 40.1595C13.3153 42.1321 13.3153 44.1033 13.3231 46.0758C13.3244 46.4573 13.1977 46.7473 12.8398 46.8988C12.5459 47.0229 12.2637 46.9772 12.0194 46.7682C11.8209 46.5983 11.753 46.3763 11.753 46.115C11.7582 43.8825 11.719 41.6487 11.77 39.4176C11.8379 36.3634 14.4857 33.4582 17.5463 32.9735C18.0975 32.8873 18.6487 32.886 19.2744 32.8703ZM23.4362 32.8755C25.9521 32.933 28.1205 30.8286 28.1792 28.2734C28.238 25.717 26.1506 23.5537 23.5668 23.4923C21.0405 23.4322 18.8695 25.5158 18.8003 28.0683C18.7284 30.6418 20.8276 32.8155 23.4362 32.8755Z" fill="white"/>
<path d="M40.6971 19.2431C42.1523 17.7866 43.5108 16.428 44.8693 15.0695C44.9673 14.9715 45.0548 14.8866 44.915 14.7481C43.5343 13.3752 42.1575 11.9996 40.6984 10.5444C40.6984 11.2198 40.6997 11.7828 40.6984 12.3458C40.6958 13.063 40.4437 13.3072 39.7383 13.3242C38.4372 13.3543 37.1349 13.2576 35.8339 13.4052C32.819 13.7449 30.166 16.3954 29.829 19.4103C29.7637 19.9956 29.761 20.5795 29.7441 21.1647C29.731 21.6245 29.4044 21.9276 28.9655 21.9263C28.5449 21.925 28.2196 21.6363 28.1896 21.2104C27.9153 17.3085 29.9361 14.1511 32.994 12.6358C34.2076 12.0336 35.4942 11.7318 36.8554 11.758C37.5072 11.771 38.159 11.7501 38.8095 11.7645C39.0656 11.771 39.1465 11.6913 39.1426 11.4327C39.1283 10.5366 39.1452 9.64043 39.1335 8.7443C39.1283 8.36547 39.2406 8.06763 39.5998 7.91218C39.976 7.7502 40.2869 7.87299 40.5678 8.15385C42.5925 10.1839 44.6237 12.2086 46.6471 14.24C47.0991 14.6932 47.0926 15.0891 46.6314 15.5528C44.6185 17.5724 42.599 19.5841 40.5874 21.6036C40.3091 21.8819 40.0022 22.0243 39.6233 21.8714C39.2393 21.7173 39.1283 21.4011 39.1348 21.004C39.1492 20.1249 39.1413 19.2444 39.1361 18.3653C39.1348 18.219 39.2027 18.0113 38.9323 18.0178C38.1028 18.0361 37.2655 17.9303 36.4439 18.0648C35.199 18.2699 34.4479 19.2105 34.4453 20.5116C34.4401 24.3234 34.4401 28.1365 34.4479 31.9483C34.4492 32.4147 34.2938 32.7517 33.8261 32.864C33.3115 32.9881 32.8882 32.6132 32.883 32.0358C32.8752 31.0417 32.8804 30.0489 32.8804 29.0548C32.8804 26.1875 32.8791 23.3201 32.8804 20.4528C32.883 18.138 34.5694 16.4568 36.8893 16.4528C37.8507 16.4515 38.8121 16.4502 39.7723 16.4541C40.4254 16.4568 40.6958 16.7206 40.6997 17.3633C40.701 17.9446 40.6971 18.526 40.6971 19.2431Z" fill="white"/>
<path d="M6.28085 10.5221C5.53497 11.2706 4.88576 11.9251 4.23394 12.5783C3.54292 13.2706 2.85321 13.9629 2.15828 14.6514C2.0172 14.7911 1.92054 14.8891 2.11386 15.0811C3.4763 16.4319 4.82828 17.793 6.28085 19.2457C6.28085 18.5298 6.27693 17.9367 6.28216 17.345C6.28738 16.7271 6.55778 16.4541 7.17694 16.4515C8.21934 16.4462 9.26305 16.4423 10.3054 16.4515C12.338 16.4698 14.0897 18.198 14.0975 20.2254C14.1106 24.1365 14.1028 28.0476 14.1015 31.9587C14.1015 32.5413 13.8141 32.8718 13.3255 32.8744C12.8331 32.877 12.5405 32.5478 12.5405 31.9691C12.5379 28.2213 12.5405 24.4722 12.5392 20.7244C12.5392 18.9452 11.6078 18.0138 9.82866 18.0125C9.29048 18.0125 8.7523 18.0308 8.21543 18.0047C7.90323 17.989 7.83269 18.1013 7.83922 18.3939C7.8562 19.2731 7.83792 20.1535 7.84837 21.034C7.85359 21.4141 7.73211 21.7094 7.37288 21.8609C7.01889 22.0111 6.71061 21.9118 6.44282 21.6427C4.3933 19.5905 2.33854 17.5422 0.29293 15.4861C-0.0976433 15.0929 -0.0976433 14.6736 0.29293 14.2804C2.34899 12.2112 4.4142 10.1511 6.4781 8.08977C6.73412 7.83504 7.04109 7.76449 7.37288 7.90558C7.70859 8.04796 7.84967 8.31837 7.84706 8.68414C7.83922 9.54761 7.86273 10.4124 7.83661 11.2746C7.82485 11.6468 7.91498 11.7657 8.31209 11.767C9.56218 11.7696 10.8149 11.6769 12.0598 11.9447C15.4913 12.6854 18.2266 15.6259 18.7126 19.1085C18.8053 19.776 18.7896 20.4409 18.7923 21.1072C18.7936 21.6075 18.4761 21.921 18.0176 21.9223C17.5591 21.9236 17.2339 21.6101 17.2378 21.1124C17.2482 20.147 17.1921 19.1921 16.8995 18.2646C15.9851 15.3711 13.3556 13.3921 10.3172 13.3242C9.34012 13.3019 8.36173 13.3189 7.38464 13.3176C6.48332 13.3163 6.28216 13.1112 6.28216 12.189C6.28085 11.6887 6.28085 11.1831 6.28085 10.5221Z" fill="white"/>
<path d="M27.8447 6.28159C26.3935 4.83028 25.035 3.47433 23.6804 2.11446C23.5589 1.99297 23.4687 1.94333 23.3211 2.09094C21.96 3.46126 20.5923 4.82636 19.1385 6.28159C19.8373 6.28159 20.4147 6.27898 20.9934 6.2829C21.6491 6.28682 21.9234 6.54939 21.9234 7.18948C21.926 11.2782 21.926 15.3683 21.9234 19.457C21.9234 20.0344 21.6282 20.3636 21.1344 20.3597C20.6446 20.3558 20.3624 20.0266 20.3624 19.4414C20.3611 15.7432 20.3546 12.045 20.3716 8.34687C20.3729 7.94583 20.2841 7.81781 19.8687 7.8348C19.0235 7.87007 18.1745 7.83741 17.328 7.84916C16.9453 7.85439 16.654 7.72245 16.5077 7.36322C16.364 7.0079 16.4698 6.70353 16.7389 6.43443C18.7806 4.39789 20.8157 2.35482 22.86 0.320894C23.295 -0.111495 23.6947 -0.10627 24.1362 0.33265C26.1675 2.35613 28.1922 4.38744 30.2221 6.41222C30.503 6.69177 30.6271 7.00268 30.4651 7.3802C30.3096 7.73944 30.0131 7.85439 29.6343 7.84916C28.7879 7.83741 27.9388 7.86615 27.0936 7.8361C26.707 7.82304 26.6103 7.93669 26.6116 8.31944C26.626 12.0176 26.6181 15.7158 26.6234 19.4139C26.6234 19.7823 26.5515 20.0919 26.1988 20.2748C25.7116 20.5295 25.1225 20.2291 25.0637 19.6804C25.0363 19.4231 25.0558 19.1592 25.0558 18.8993C25.0558 15.0378 25.0558 11.1763 25.0558 7.31488C25.0558 6.50758 25.2858 6.28159 26.1048 6.28159C26.6377 6.28159 27.1733 6.28159 27.8447 6.28159Z" fill="white"/>
<path d="M15.6676 43.8011C15.6676 43.0525 15.6623 42.3053 15.6689 41.5568C15.6741 41.0186 15.9732 40.6999 16.4513 40.7012C16.9281 40.7025 17.2272 41.0225 17.2286 41.562C17.2338 43.0747 17.2338 44.5874 17.2286 46.1002C17.2272 46.6357 16.9216 46.9584 16.4461 46.9558C15.9719 46.9545 15.6741 46.6318 15.6689 46.0936C15.6623 45.3307 15.6676 44.5666 15.6676 43.8011Z" fill="white"/>
<path d="M31.3103 43.8295C31.3103 44.578 31.3142 45.3252 31.309 46.0737C31.3051 46.642 30.9994 46.9712 30.5043 46.9581C30.0341 46.9451 29.7506 46.6224 29.748 46.0751C29.7441 44.5793 29.7441 43.0823 29.748 41.5866C29.7493 41.017 30.055 40.6904 30.5513 40.7035C31.0216 40.7153 31.3038 41.0379 31.3077 41.5853C31.3142 42.3325 31.3103 43.081 31.3103 43.8295Z" fill="white"/>
</svg>
