<svg width="55" height="55" viewBox="0 -8 42 60" fill="none" xmlns="http://www.w3.org/2000/svg">
<path d="M38.0306 43.0002H26.5288C26.0478 42.7546 25.5567 42.5258 25.0869 42.26C24.4074 41.8741 23.7504 41.4479 23.0675 41.0688C22.8466 40.9454 22.573 40.8568 22.323 40.8546C20.1579 40.8378 17.9927 40.8479 15.8265 40.8411C15.5944 40.8411 15.4565 40.9062 15.323 41.1137C14.7344 42.0278 13.8744 42.4035 12.8092 42.233C12.4504 42.1758 12.1106 41.9941 11.7339 41.8584C11.3661 42.4809 10.7584 42.7972 10.0744 43.0002H9.23463C8.31632 42.7366 7.61891 42.2129 7.27804 41.2763C6.55708 41.6106 5.86527 41.6678 5.16448 41.3851C4.45585 41.098 3.99838 40.5585 3.72255 39.8653C3.64182 39.8822 3.5981 39.8844 3.56222 39.9001C1.9678 40.6314 0.382347 39.5289 0.0773664 38.1841C0.0661538 38.1347 0.0257888 38.0921 0 38.0461C0 34.2125 0 30.3777 0 26.5441C0.244433 26.0618 0.472047 25.5694 0.737784 25.0994C1.12237 24.4198 1.55069 23.7647 1.92967 23.0817C2.05301 22.8607 2.14271 22.5882 2.14495 22.3381C2.16177 20.1734 2.15056 18.0098 2.16065 15.8451C2.16177 15.5871 2.06422 15.457 1.85679 15.3168C0.975489 14.7224 0.596506 13.8778 0.769179 12.8269C0.828605 12.468 1.00801 12.1281 1.14256 11.7524C0.52811 11.3778 0.20631 10.7721 0.00112125 10.0879V9.24783C0.262373 8.32699 0.787119 7.62824 1.71103 7.29848C1.11677 5.95705 1.46884 4.46644 3.12717 3.71833C3.11596 3.66786 3.11484 3.60953 3.09241 3.56131C2.2952 1.87778 3.67098 -0.023337 5.5872 0.000216676C9.01374 0.0428376 12.4425 0.0159191 15.8691 0.00806789C16.4039 0.00694629 16.8849 0.133687 17.3402 0.411845C18.199 0.936755 19.0613 1.45606 19.9359 1.95293C20.1444 2.07182 20.4057 2.15482 20.6422 2.15706C22.8242 2.17276 25.0073 2.17164 27.1892 2.15482C27.3428 2.15369 27.5503 2.02807 27.64 1.89797C28.2589 1.00181 29.0998 0.610368 30.1684 0.778609C30.5283 0.835811 30.8692 1.01639 31.2358 1.14762C31.8144 0.342305 32.6105 -0.0951195 33.6342 0.036108C34.65 0.166214 35.3194 0.784217 35.7141 1.73197C36.4205 1.39886 37.1123 1.34165 37.8142 1.62542C38.5251 1.91255 38.9826 2.45316 39.2561 3.13734C39.3268 3.13061 39.3582 3.1351 39.3817 3.12388C41.1286 2.27595 43.0359 3.70375 43.0011 5.6688C42.9417 9.06725 42.9809 12.468 42.9888 15.8675C42.9899 16.4171 42.8598 16.9106 42.5717 17.3783C42.0671 18.1993 41.5603 19.0215 41.0928 19.8649C40.9447 20.1319 40.8438 20.4639 40.8416 20.7678C40.8203 22.8798 40.8349 24.9929 40.8248 27.106C40.8237 27.383 40.8842 27.5591 41.1432 27.7128C41.7083 28.0504 42.057 28.5764 42.2017 29.2146C42.3631 29.9279 42.2039 30.5964 41.8126 31.2043C43.4922 32.3865 43.3936 34.817 41.2755 35.7569C41.5996 36.4276 41.6534 37.1208 41.3742 37.8207C41.0905 38.534 40.5523 38.9961 39.8381 39.2754C39.8706 39.3752 39.8908 39.4414 39.9143 39.5053C40.4559 40.9634 39.7629 42.4046 38.2907 42.8892C38.2022 42.9183 38.1181 42.9621 38.0317 42.998L38.0306 43.0002ZM27.1926 3.60168C27.0087 3.60168 26.8573 3.60168 26.706 3.60168C24.7471 3.60168 22.7883 3.59271 20.8295 3.60729C20.178 3.61178 19.595 3.45812 19.0433 3.11042C18.2629 2.61804 17.4725 2.14136 16.6663 1.69384C16.4118 1.55251 16.0944 1.45494 15.804 1.45381C12.4324 1.43699 9.06083 1.44372 5.68923 1.44372C5.54907 1.44372 5.4078 1.43811 5.26988 1.4583C4.71486 1.54242 4.27982 2.03593 4.29551 2.55298C4.31121 3.0835 4.71038 3.50635 5.27661 3.58374C5.41452 3.6028 5.5558 3.60056 5.69484 3.60168C6.6322 3.6028 7.56957 3.5972 8.50694 3.60505C9.00253 3.60953 9.31872 3.90227 9.31199 4.32175C9.30527 4.72216 8.99356 5.00817 8.52936 5.03285C8.37575 5.0407 8.22214 5.03509 8.06741 5.03509C6.69612 5.03621 5.32482 5.02948 3.95465 5.04406C3.39739 5.04967 2.95562 5.45457 2.87153 5.97724C2.79864 6.43485 3.1025 6.9463 3.56894 7.09772C3.75059 7.15716 3.95353 7.16614 4.14639 7.16726C5.04227 7.17399 5.93703 7.17062 6.83291 7.17062C6.94503 7.17062 7.05716 7.16501 7.16816 7.17735C7.59872 7.22222 7.89137 7.52729 7.88016 7.91312C7.86782 8.30456 7.57293 8.59506 7.12892 8.59842C5.70156 8.60964 4.27533 8.60179 2.84798 8.6074C2.63943 8.6074 2.42415 8.613 2.22344 8.66235C1.51817 8.83732 1.21432 9.6718 1.63366 10.2651C1.88931 10.6263 2.25035 10.7631 2.68652 10.762C4.12733 10.7564 5.56814 10.7586 7.01006 10.762C7.53817 10.762 7.87231 11.0368 7.88128 11.463C7.89137 11.9038 7.54939 12.1898 6.99661 12.1909C5.79351 12.1932 4.5904 12.1887 3.3873 12.1932C2.654 12.1954 2.17859 12.6037 2.16402 13.2318C2.14944 13.8688 2.6383 14.322 3.37272 14.35C3.48485 14.3545 3.59698 14.3511 3.70798 14.3511C6.17025 14.3511 8.63252 14.3511 11.0948 14.3511C11.2349 14.3511 11.3751 14.3444 11.5141 14.359C12.0669 14.4139 12.3495 14.968 12.0613 15.4402C11.975 15.5826 11.8584 15.7071 11.7518 15.8372C11.1946 16.5203 10.6317 17.1978 10.0801 17.8853C9.81656 18.2128 9.78292 18.5796 10.0072 18.9385C10.2236 19.2862 10.5712 19.423 10.9513 19.3086C11.1766 19.2402 11.3908 19.0697 11.5646 18.8981C13.7768 16.7177 15.9902 14.5384 18.1789 12.3345C18.772 11.7367 19.4324 11.4383 20.2722 11.4742C20.9383 11.5034 21.6076 11.4798 22.2266 11.4798C22.2501 11.002 22.1997 10.5567 22.3051 10.1518C22.7154 8.56141 24.6361 7.94565 25.9816 8.95397C26.3797 9.25232 26.7553 9.57758 27.1926 9.93201V3.6028V3.60168ZM15.7906 39.4111C17.9254 39.4111 20.0099 39.4223 22.0931 39.4055C22.7726 39.3999 23.3837 39.5468 23.96 39.9136C24.7505 40.416 25.5578 40.8905 26.3696 41.3582C26.5557 41.4659 26.7833 41.5601 26.9919 41.5612C30.5036 41.5735 34.0143 41.5724 37.5261 41.5612C37.738 41.5612 37.9712 41.4838 38.1584 41.3795C38.5733 41.1485 38.7617 40.6606 38.6462 40.2332C38.5094 39.7274 38.1394 39.4279 37.5608 39.4178C36.5674 39.401 35.574 39.4167 34.5816 39.4077C34.4045 39.4066 34.2105 39.3909 34.0558 39.3158C33.7441 39.1655 33.6162 38.8828 33.6959 38.5463C33.7844 38.1717 34.058 37.9878 34.4348 37.9822C35.1625 37.9721 35.8901 37.9788 36.6167 37.9777C37.4139 37.9777 38.2123 37.9867 39.0083 37.9698C39.6407 37.9564 40.1285 37.464 40.1206 36.8886C40.1117 36.3087 39.6575 35.8736 39.0274 35.8455C38.8738 35.8388 38.7202 35.8422 38.5654 35.8422C37.6841 35.8422 36.8028 35.8444 35.9215 35.8399C35.5919 35.8388 35.2757 35.739 35.1882 35.4002C35.1322 35.1838 35.1434 34.8529 35.2746 34.7116C35.436 34.5355 35.7511 34.4256 36.0023 34.4211C37.4431 34.3942 38.8839 34.4143 40.3247 34.4054C41.0692 34.4009 41.5659 33.9444 41.5502 33.3141C41.5345 32.7118 41.0176 32.2609 40.3213 32.2541C39.6082 32.2485 38.894 32.253 38.1809 32.253C37.3971 32.253 36.6133 32.262 35.8307 32.2474C35.408 32.2396 35.1008 31.9165 35.103 31.5318C35.1053 31.1449 35.4125 30.8477 35.8386 30.8252C35.9776 30.8174 36.1178 30.823 36.2579 30.823C37.4195 30.823 38.58 30.832 39.7416 30.8174C40.3393 30.8095 40.7754 30.3956 40.818 29.8494C40.8618 29.2797 40.4817 28.8007 39.8863 28.6964C39.7091 28.665 39.5241 28.6661 39.3436 28.6661C36.8533 28.6639 34.363 28.6661 31.8727 28.6639C31.7191 28.6639 31.5632 28.6717 31.4119 28.6493C30.9264 28.5764 30.6651 28.0661 30.8961 27.6331C30.9735 27.4873 31.0889 27.3595 31.1943 27.2294C31.7595 26.5351 32.3313 25.8464 32.8942 25.1499C33.1565 24.8246 33.207 24.4624 32.9906 24.0967C32.7809 23.7445 32.4401 23.5965 32.0566 23.7042C31.8301 23.7681 31.6114 23.933 31.4388 24.1035C29.1963 26.313 26.9571 28.5248 24.7314 30.7512C24.1921 31.2907 23.5799 31.5688 22.8197 31.5374C22.499 31.524 22.1761 31.5352 21.8543 31.5352C21.4708 31.5352 21.0874 31.5352 20.7589 31.5352C20.7364 32.022 20.7858 32.4538 20.6871 32.8464C20.2812 34.4536 18.3369 35.0727 16.9847 34.0442C16.5923 33.7459 16.2178 33.4251 15.7917 33.0796V39.4122L15.7906 39.4111ZM39.3952 27.2069C39.3952 27.0252 39.3952 26.8738 39.3952 26.7224C39.3952 24.736 39.4008 22.7497 39.3918 20.7633C39.3896 20.1722 39.5286 19.6384 39.8437 19.1336C40.3471 18.3272 40.8393 17.514 41.3013 16.6841C41.4437 16.4295 41.5413 16.112 41.5435 15.8227C41.5603 12.4511 41.5547 9.08071 41.5536 5.70917C41.5536 4.85339 41.1129 4.29708 40.4503 4.31054C39.7865 4.32399 39.3963 4.83657 39.3952 5.70132C39.3941 6.66702 39.4008 7.6316 39.3884 8.5973C39.3828 9.01678 39.1025 9.30167 38.7247 9.3241C38.3401 9.34765 38.0183 9.05716 37.9689 8.63431C37.9555 8.52328 37.9622 8.41111 37.9622 8.29895C37.9622 6.96986 37.9622 5.64076 37.9622 4.31278C37.9622 4.15912 37.9667 4.00434 37.9488 3.8518C37.886 3.3067 37.387 2.86479 36.8623 2.87937C36.3095 2.89507 35.8543 3.32353 35.8408 3.90003C35.8184 4.82311 35.8307 5.74619 35.8285 6.66927C35.8285 6.82293 35.8352 6.97771 35.8251 7.13024C35.7937 7.59234 35.4966 7.89966 35.0952 7.89293C34.6893 7.88621 34.4022 7.58225 34.3989 7.10893C34.3899 5.7103 34.3955 4.31166 34.3933 2.9119C34.3933 2.75824 34.3966 2.60346 34.3787 2.45092C34.3081 1.85086 33.8427 1.42465 33.2888 1.44596C32.745 1.46615 32.2685 1.93498 32.2472 2.51709C32.2248 3.14631 32.2393 3.77553 32.2393 4.40587C32.2393 5.31549 32.2461 6.22399 32.2349 7.13361C32.2293 7.58225 31.9075 7.90191 31.5083 7.89293C31.1203 7.88396 30.8322 7.57889 30.8109 7.14707C30.8041 7.02145 30.8086 6.89583 30.8086 6.76909C30.8086 5.60823 30.8165 4.44737 30.8053 3.28651C30.7997 2.66514 30.387 2.21538 29.8264 2.17725C29.2445 2.13687 28.7612 2.54289 28.6704 3.15865C28.6457 3.32353 28.6502 3.49289 28.6502 3.66113C28.6491 6.15109 28.6502 8.64104 28.6491 11.131C28.6491 11.2712 28.6558 11.4125 28.6379 11.5505C28.5729 12.0799 28.0302 12.3502 27.5727 12.0776C27.418 11.9857 27.2834 11.8589 27.1421 11.7445C26.4705 11.1961 25.8056 10.6397 25.1272 10.1002C24.7853 9.8277 24.3525 9.81312 24.034 10.0386C23.7156 10.264 23.5788 10.5893 23.6876 10.9549C23.7515 11.1691 23.9073 11.3733 24.0688 11.537C26.2485 13.7488 28.4237 15.9651 30.6281 18.1511C31.2605 18.777 31.5733 19.469 31.5262 20.3562C31.4915 21.0067 31.5195 21.6606 31.5195 22.301C31.598 22.3179 31.626 22.3324 31.6507 22.328C32.8269 22.1362 33.7452 22.513 34.2498 23.3991C34.761 24.2953 34.6332 25.2845 33.8887 26.193C33.6275 26.5127 33.3673 26.8346 33.0668 27.2058H39.3952V27.2069ZM3.59025 15.8058C3.59025 15.9887 3.59025 16.1401 3.59025 16.2915C3.59025 18.279 3.58464 20.2653 3.59361 22.2528C3.59585 22.8439 3.4557 23.3778 3.1395 23.8814C2.64167 24.6744 2.1528 25.4752 1.69757 26.2928C1.54845 26.5598 1.44417 26.8918 1.44305 27.1946C1.42511 30.5673 1.43184 33.9388 1.43184 37.3115C1.43184 38.1448 1.85343 38.6899 2.50263 38.7011C3.17875 38.7123 3.588 38.1841 3.59025 37.2991C3.59137 36.3334 3.58352 35.3677 3.5981 34.4031C3.6037 33.987 3.89299 33.7033 4.27309 33.6876C4.64422 33.6718 4.95593 33.9455 5.01199 34.3482C5.02993 34.4715 5.02321 34.5994 5.02321 34.725C5.02321 36.1248 5.01872 37.5234 5.02657 38.9232C5.02993 39.6253 5.48965 40.1323 6.09624 40.1334C6.71854 40.1356 7.15134 39.6522 7.15695 38.9299C7.16368 37.9923 7.15695 37.0546 7.16031 36.1169C7.16031 35.9644 7.16368 35.8063 7.20068 35.6604C7.2915 35.3015 7.54714 35.1243 7.90707 35.1232C8.25578 35.121 8.53272 35.3901 8.57757 35.7524C8.59439 35.8904 8.59103 36.0317 8.59103 36.1719C8.59103 37.529 8.5843 38.8862 8.59888 40.2444C8.60112 40.5024 8.64485 40.7817 8.75137 41.0139C8.94535 41.4389 9.45327 41.6487 9.87823 41.541C10.394 41.4109 10.7393 40.9701 10.7427 40.3925C10.7506 38.9927 10.7461 37.5941 10.7461 36.1943C10.7461 35.4765 10.9782 35.1254 11.4547 35.1198C11.9346 35.1142 12.1757 35.4687 12.1757 36.1798C12.1757 37.3552 12.1689 38.5306 12.179 39.7061C12.1846 40.3521 12.6029 40.8086 13.1803 40.8366C13.7589 40.8647 14.2309 40.4497 14.3161 39.8272C14.3386 39.6623 14.3341 39.4918 14.3341 39.3247C14.3341 36.8763 14.3341 34.4267 14.3341 31.9782C14.3341 31.8526 14.3363 31.7259 14.3341 31.6002C14.3285 31.2783 14.4327 30.9733 14.7523 30.9049C14.9934 30.8533 15.3331 30.8824 15.5192 31.0215C16.3243 31.6249 17.0868 32.2855 17.8705 32.9181C18.199 33.184 18.5657 33.2109 18.9245 32.9888C19.2732 32.7723 19.4044 32.4258 19.2934 32.0444C19.2317 31.8313 19.0702 31.6272 18.9088 31.4634C16.7672 29.2909 14.6357 27.1082 12.4593 24.9716C11.7462 24.2717 11.3818 23.5113 11.4558 22.513C11.4996 21.9197 11.4637 21.3219 11.4637 20.7151C11.3639 20.7196 11.3235 20.7173 11.2843 20.7241C10.1047 20.9013 9.21108 20.5155 8.70203 19.607C8.19411 18.7007 8.32754 17.7496 9.09335 16.8186C9.35572 16.499 9.61361 16.176 9.91299 15.8058H3.58688H3.59025ZM21.8196 12.9143C21.075 12.9143 20.5682 12.8807 20.0693 12.9278C19.8136 12.9525 19.512 13.0579 19.3337 13.2329C17.2538 15.2664 15.1907 17.3178 13.1332 19.3748C13.011 19.497 12.9157 19.7057 12.9123 19.8761C12.8922 20.8968 12.8843 21.9186 12.9157 22.9392C12.9224 23.1793 13.0334 23.4731 13.1983 23.6414C15.2524 25.741 17.3245 27.8227 19.3999 29.9021C19.5042 30.0065 19.6858 30.0872 19.8338 30.0894C20.8687 30.1052 21.9048 30.1152 22.9386 30.0838C23.1774 30.0771 23.4689 29.9593 23.6382 29.7933C25.7271 27.7487 27.8003 25.6872 29.8668 23.62C29.9879 23.4989 30.072 23.2858 30.0753 23.1131C30.0955 22.1485 30.0708 21.1828 30.091 20.2182C30.1 19.8066 29.9576 19.5083 29.6694 19.2211C28.0044 17.5623 26.3124 15.9292 24.7169 14.2053C23.8356 13.2531 22.9576 12.5431 21.8207 12.9155L21.8196 12.9143Z" fill="#3A93A4"/>
</svg>
