<svg width="47" height="48" viewBox="0 0 47 48" fill="none" xmlns="http://www.w3.org/2000/svg">
<path d="M24.9275 9.46475C24.6358 8.2265 23.489 7.29297 22.26 7.29297C22.1741 7.29297 22.0883 7.29759 22.0033 7.30682C20.4696 7.4758 19.3856 8.63002 19.3662 10.1139C19.3459 11.6873 18.8695 13.0936 17.9489 14.2949C17.9424 14.3042 17.9332 14.3208 17.924 14.3365C17.888 14.4021 17.8215 14.5249 17.6627 14.5249C17.6414 14.5249 17.6193 14.5221 17.5962 14.5175L17.4808 14.4935L17.4928 14.3762C17.7255 12.0779 16.9148 10.3503 15.0828 9.2413C14.2371 8.72882 13.3673 8.46843 12.4984 8.46843C11.5806 8.46843 10.6683 8.75745 9.78654 9.32809C8.03403 10.462 7.27042 12.1693 7.5188 14.403L7.54742 14.6652L7.3212 14.5304C7.31289 14.5258 7.30458 14.5212 7.29627 14.5175C7.26396 14.5018 7.21964 14.4796 7.18455 14.4381C7.08021 14.3143 6.99711 14.2081 6.92324 14.1047C6.09131 12.9413 5.65826 11.5978 5.6361 10.112C5.62594 9.44536 5.38957 8.80362 4.96852 8.30591C4.54748 7.80729 3.96115 7.47303 3.31573 7.36314C3.14676 7.33452 2.97686 7.31975 2.80882 7.31975C1.62232 7.31975 0.582631 8.04737 0.159739 9.17297C0.146812 9.20621 0.139425 9.24684 0.131115 9.29024C0.112648 9.38811 0.0904878 9.50538 0 9.60049V11.3697C0.080331 11.6956 0.141272 12.0281 0.200366 12.3503C0.282544 12.8018 0.368415 13.2681 0.506916 13.7123C1.03045 15.3855 1.81714 16.8638 2.84483 18.1076C3.87713 19.3569 5.18274 20.4031 6.7238 21.2184C7.12268 21.4299 7.20302 21.6894 7.20302 22.0393C7.1984 25.5768 7.19748 29.1743 7.19655 32.6526C7.19563 36.9796 7.19378 41.4533 7.1864 45.8542C7.18547 46.4673 7.37014 46.8043 7.82258 47.0121H8.22516C8.71084 46.7665 8.80964 46.3583 8.80871 45.8237C8.80133 43.5088 8.8004 41.1551 8.8004 38.8799C8.79948 36.7764 8.79948 34.601 8.79302 32.4624C8.79209 32.238 8.8161 32.0654 8.93244 31.9481C9.02939 31.8511 9.17528 31.8077 9.40612 31.8077H9.42458C10.6148 31.8188 11.841 31.8244 13.069 31.8244C14.2685 31.8244 15.5057 31.8188 16.7476 31.8087H16.767C16.936 31.8087 17.1253 31.8253 17.249 31.949C17.3737 32.0737 17.3894 32.2648 17.3884 32.4523C17.3755 35.047 17.3774 37.685 17.3792 40.2363C17.3792 40.8513 17.3801 41.4663 17.3801 42.0812C17.3801 42.2585 17.3801 42.4423 17.4032 42.615C17.454 42.9954 17.7282 43.2696 18.1022 43.313C18.128 43.3158 18.1548 43.3176 18.1816 43.3176C18.5001 43.3176 18.8021 43.0951 18.9323 42.7655C18.9969 42.602 18.9941 42.4294 18.9914 42.2465C18.9904 42.2077 18.9904 42.1699 18.9904 42.1311C18.9914 35.9306 18.9923 29.3275 18.9914 21.3514V21.344C18.9914 21.0938 18.9914 20.8352 19.3099 20.6229C22.3643 18.5905 24.2323 15.7419 24.8601 12.1555C25.0097 11.2884 25.1399 10.365 24.9275 9.46475ZM12.491 10.1268H12.5002C14.3977 10.1268 15.9425 11.6587 15.9434 13.5424C15.9443 14.4602 15.587 15.3217 14.9388 15.9672C14.2906 16.6117 13.4254 16.9672 12.5021 16.9672H12.4975C11.5714 16.9663 10.7016 16.6006 10.0478 15.9395C9.40335 15.2867 9.0534 14.4298 9.06356 13.5258C9.08387 11.6569 10.6212 10.1324 12.491 10.1268ZM18.225 19.3975C17.5879 19.8038 17.3543 20.2258 17.3635 20.9544C17.3847 22.6737 17.3838 24.4226 17.382 26.1133C17.381 27.261 17.3801 28.4485 17.3866 29.6156C17.3875 29.7966 17.3718 29.9804 17.2527 30.1004C17.1336 30.2205 16.9535 30.2361 16.792 30.2361H16.7763C15.5953 30.2269 14.3617 30.2223 13.1087 30.2223C11.9121 30.2223 10.6517 30.226 9.3618 30.2343H9.34979C9.19929 30.2343 9.02939 30.2186 8.91767 30.106C8.80502 29.9924 8.79209 29.8188 8.79394 29.6646C8.80687 28.6202 8.80502 27.5584 8.80317 26.5306C8.80225 26.1474 8.80133 25.7642 8.80133 25.3819C8.80133 24.983 8.8004 24.5832 8.79856 24.1834C8.79579 23.2019 8.79209 22.1861 8.80779 21.188C8.8161 20.657 8.60927 20.344 8.09497 20.1048C4.50869 18.4381 2.35545 15.596 1.69434 11.6578C1.62047 11.2192 1.59923 10.7732 1.58723 10.3558C1.5743 9.90798 1.69526 9.53585 1.93718 9.28008C2.14585 9.05939 2.43394 8.93843 2.77096 8.9292C2.78573 8.9292 2.79958 8.92827 2.81436 8.92827C3.56596 8.92827 4.02948 9.44536 4.05626 10.3115C4.14028 13.1066 5.32309 15.355 7.57235 16.9949C9.01462 18.0466 10.708 18.6025 12.4689 18.6025C14.4282 18.6025 16.3497 17.9174 17.8806 16.6736C19.4983 15.3587 20.5278 13.5682 20.8574 11.498C20.8999 11.2293 20.9165 10.9523 20.9322 10.6855C20.9424 10.5193 20.9525 10.3475 20.9682 10.1776C21.0449 9.38442 21.4918 8.93012 22.1944 8.93012C22.2231 8.93012 22.2517 8.93104 22.2812 8.93197C22.9931 8.9689 23.4363 9.50723 23.4105 10.3032C23.2812 14.2275 21.537 17.2876 18.225 19.3975Z" fill="white"/>
<path d="M13.923 45.8713C13.9091 44.1446 13.911 42.3883 13.9128 40.6902C13.9137 40.0522 13.9147 39.4132 13.9147 38.7751C13.9147 38.5701 13.9156 38.3651 13.9165 38.1592C13.9184 37.6818 13.9211 37.1888 13.911 36.704C13.8999 36.1675 13.5823 35.8203 13.1021 35.8203H13.0874C12.4309 35.8295 12.2923 36.3983 12.2914 36.8739C12.2905 37.8887 12.2905 38.9035 12.2914 39.9192C12.2923 41.8657 12.2933 43.8786 12.2831 45.8593C12.2803 46.4188 12.4382 46.7651 12.8094 47.0107H13.3791C13.7595 46.7697 13.9276 46.4161 13.923 45.8713Z" fill="white"/>
<path d="M18.9442 45.9929C18.8315 45.6189 18.5628 45.4121 18.187 45.4121C18.1759 45.4121 18.1639 45.4121 18.1529 45.413C17.7771 45.426 17.5259 45.6162 17.4271 45.9634C17.3182 46.3438 17.4253 46.6457 17.7457 46.8618C17.8048 46.9015 17.8639 46.9412 17.923 46.98L17.971 47.0123H18.3569C18.3809 46.9985 18.4049 46.9855 18.4299 46.9726C18.5 46.9348 18.5656 46.8997 18.6201 46.8563C18.9414 46.5996 19.0439 46.3253 18.9442 45.9929Z" fill="white"/>
<path d="M31.5506 0.0898438C31.5414 0.0898438 31.5322 0.0898438 31.5238 0.0898438C31.0963 0.102771 30.8009 0.399176 30.7722 0.845167C30.763 0.986444 30.7658 1.12772 30.7676 1.27731C30.7676 1.30132 30.7685 1.32625 30.7685 1.35026H30.7695L30.7713 1.48137C30.7713 1.55894 30.7704 1.63558 30.7685 1.71314C30.7658 1.87658 30.7621 2.04556 30.7741 2.20807C30.8046 2.63467 31.1287 2.94862 31.5442 2.95324H31.5534C31.9634 2.95324 32.3179 2.62913 32.3447 2.23116C32.3742 1.7824 32.3752 1.30778 32.3465 0.821159C32.3225 0.397329 31.9874 0.0898438 31.5506 0.0898438Z" fill="white"/>
<path d="M36.0385 4.53871C36.0247 4.12042 35.6997 3.79354 35.2814 3.77969C35.0755 3.7723 34.864 3.76953 34.636 3.76953C34.4245 3.76953 34.202 3.7723 33.9545 3.77877C33.4956 3.78985 33.1826 4.09918 33.1762 4.54794C33.1688 5.01055 33.4873 5.33466 33.9684 5.35405C34.0386 5.35682 34.1133 5.35774 34.2038 5.35774C34.2703 5.35774 34.3377 5.35682 34.4042 5.3559C34.4282 5.3559 34.4522 5.35497 34.4762 5.35497V5.35405L34.6073 5.3522C34.6803 5.3522 34.7523 5.35313 34.8252 5.35497C34.8963 5.3559 34.9674 5.35774 35.0385 5.35774C35.1355 5.35774 35.2149 5.3559 35.2888 5.35036C35.7237 5.32358 36.0533 4.96623 36.0385 4.53871Z" fill="white"/>
<path d="M32.3515 6.9564C32.322 6.5141 31.9803 6.17984 31.5565 6.17799L31.5528 6.04688V6.17799C31.1133 6.17799 30.792 6.49471 30.7726 6.94809C30.7532 7.38393 30.7532 7.82899 30.7717 8.27129C30.7911 8.73114 31.1041 9.04047 31.5519 9.04139C31.9905 9.04139 32.3192 8.7256 32.3515 8.27314C32.3617 8.13279 32.3589 7.99243 32.3561 7.84377C32.3552 7.77544 32.3534 7.70619 32.3534 7.63786C32.3534 7.56583 32.3543 7.49381 32.3561 7.42179C32.3589 7.2685 32.3617 7.10968 32.3515 6.9564Z" fill="white"/>
<path d="M45.6202 13.3965C45.6146 12.9893 45.2878 12.6495 44.875 12.6237C44.8003 12.619 44.7208 12.6172 44.6239 12.6172C44.5528 12.6172 44.4817 12.6181 44.4106 12.619C44.3377 12.62 44.2656 12.6218 44.1927 12.6218H44.0616V12.62C44.033 12.62 44.0043 12.619 43.9748 12.619C43.9037 12.6181 43.8326 12.6172 43.7606 12.6172C43.6636 12.6172 43.5833 12.619 43.5085 12.6227C43.0708 12.6449 42.7698 12.9468 42.7578 13.3744C42.7458 13.8213 43.033 14.1648 43.4392 14.1906C43.6867 14.2063 43.936 14.2146 44.1788 14.2146C44.4346 14.2146 44.6904 14.2063 44.9388 14.1888C45.3081 14.1611 45.6257 13.7917 45.6202 13.3965Z" fill="white"/>
<path d="M29.1773 5.35128C29.6085 5.32727 29.9538 4.969 29.9474 4.55256C29.9409 4.12965 29.5937 3.78985 29.157 3.77784C28.9585 3.7723 28.7489 3.76953 28.5337 3.76953C28.3241 3.76953 28.109 3.7723 27.8745 3.77692C27.4063 3.78708 27.0961 4.08348 27.0841 4.53132C27.0721 5.00039 27.3814 5.33004 27.8551 5.3522C27.9243 5.35497 27.9982 5.35682 28.0878 5.35682C28.157 5.35682 28.2263 5.3559 28.2955 5.35497C28.3611 5.35405 28.4275 5.35312 28.4931 5.35312H28.5051C28.5753 5.35312 28.6455 5.35405 28.7156 5.35497C28.7849 5.3559 28.8541 5.35682 28.9225 5.35682C29.0222 5.35774 29.1025 5.3559 29.1773 5.35128Z" fill="white"/>
<path d="M41.9224 9.62716C41.891 9.22641 41.5568 8.93555 41.1283 8.93555H41.108C40.675 8.94478 40.3841 9.23195 40.3509 9.68348C40.3398 9.83676 40.3426 9.98912 40.3463 10.1507C40.3481 10.2218 40.349 10.2929 40.349 10.3631C40.349 10.4379 40.3481 10.5127 40.3463 10.5865C40.3435 10.7444 40.3407 10.894 40.3518 11.0427C40.3851 11.4711 40.7082 11.7879 41.1191 11.7971H41.1339C41.5346 11.7971 41.8966 11.4675 41.9243 11.0778C41.9603 10.5838 41.9594 10.0953 41.9224 9.62716Z" fill="white"/>
<path d="M41.1311 15.0234C41.1209 15.0234 41.1098 15.0234 41.0997 15.0244C40.6758 15.041 40.3813 15.342 40.349 15.7908C40.3388 15.932 40.3416 16.0724 40.3444 16.2211C40.3453 16.246 40.3453 16.2709 40.3453 16.2959H40.3462L40.3499 16.4251C40.3499 16.5027 40.3481 16.5803 40.3471 16.6569C40.3434 16.8277 40.3407 16.9884 40.3536 17.15C40.3868 17.5683 40.6823 17.8637 41.0877 17.885C41.1024 17.8859 41.1163 17.8859 41.1311 17.8859C41.5392 17.8859 41.8854 17.5877 41.9187 17.2072C41.9611 16.7271 41.9621 16.2238 41.9214 15.7123C41.89 15.3263 41.5429 15.0234 41.1311 15.0234Z" fill="white"/>
<path d="M39.5274 13.3762C39.5071 12.9828 39.1867 12.6532 38.798 12.6255C38.7186 12.62 38.6318 12.6172 38.5265 12.6172C38.4545 12.6172 38.3815 12.6181 38.3095 12.62C38.2356 12.6209 38.1618 12.6227 38.0879 12.6227H38.0713C38.002 12.6227 37.9319 12.6209 37.8626 12.62C37.7878 12.619 37.713 12.6172 37.6392 12.6172C37.5431 12.6172 37.4647 12.619 37.3908 12.6237C36.9762 12.6495 36.6853 12.9441 36.6678 13.3577C36.6484 13.8028 36.9328 14.1592 37.3298 14.1879C37.5708 14.2054 37.8229 14.2137 38.0768 14.2137C38.3206 14.2137 38.5736 14.2054 38.8294 14.1897C39.207 14.1666 39.5477 13.7705 39.5274 13.3762Z" fill="white"/>
<path d="M46.9056 22.7071C46.9103 21.985 46.6249 21.2934 46.1023 20.7624C45.5834 20.2343 44.9001 19.9323 44.1799 19.9129C44.1522 19.912 44.1245 19.912 44.0968 19.912C42.5872 19.912 41.372 21.0487 41.2723 22.5556C41.2658 22.6461 41.2612 22.7366 41.2557 22.8271C41.2289 23.2694 41.2021 23.7274 41.1015 24.1752C40.8439 25.323 40.3591 26.3009 39.6177 27.1642L39.3407 27.4874L39.3887 27.0645C39.6177 25.0312 38.8873 23.6831 38.2336 22.9102C37.3472 21.8622 36.0323 21.1937 34.7166 21.1207C34.6104 21.1152 34.5033 21.1115 34.3989 21.1115C33.2014 21.1115 32.1312 21.4947 31.2189 22.2509C29.7804 23.443 29.1913 25.022 29.4184 27.0774L29.4646 27.4929L29.1894 27.1771C28.5939 26.4929 28.1913 25.7819 27.845 24.7994C27.6465 24.2362 27.6013 23.6517 27.5579 23.0866C27.5376 22.8206 27.5163 22.5455 27.4794 22.2786C27.2975 20.9739 26.1064 19.9342 24.7666 19.9102C24.7509 19.9102 24.7343 19.9102 24.7186 19.9102C23.3566 19.9102 22.136 20.9139 21.9402 22.1946C21.7454 23.4716 21.9947 24.7376 22.2939 25.9158C22.4047 26.3507 22.6881 26.6102 23.0519 26.6102C23.1157 26.6102 23.1812 26.6019 23.2477 26.5862C23.4785 26.5308 23.6549 26.4117 23.7583 26.2418C23.8765 26.0479 23.9014 25.7912 23.8294 25.4975C23.5875 24.504 23.4776 23.6147 23.4933 22.7791C23.5072 22.0478 24.015 21.5159 24.701 21.5159C25.364 21.5168 25.8728 22.0265 25.9106 22.7283C25.9448 23.3451 25.9974 23.8484 26.0768 24.3128C26.4028 26.2214 27.4443 27.9777 29.0103 29.2594C30.5523 30.5216 32.4618 31.2169 34.3851 31.2169C34.9834 31.2169 35.5799 31.1486 36.1588 31.0147C38.1043 30.5632 39.7599 29.5548 40.9473 28.0978C42.1356 26.6397 42.7968 24.805 42.8605 22.792C42.8836 22.0644 43.3877 21.5279 44.0608 21.5159H44.083C44.7589 21.5159 45.2806 22.0505 45.2972 22.7597C45.3083 23.2195 45.2842 23.6591 45.2261 24.0672C44.7219 27.6019 42.9233 30.3231 39.879 32.1551C39.4312 32.4247 39.2502 32.7497 39.2539 33.2798C39.264 34.8984 39.264 36.5439 39.264 38.1358C39.264 39.4885 39.264 40.8875 39.2705 42.2633C39.2714 42.4341 39.2557 42.6086 39.1412 42.7241C39.0267 42.8395 38.8531 42.8552 38.699 42.8552H38.6851C37.3499 42.8459 36.1284 42.8413 34.9502 42.8413C33.6732 42.8413 32.4848 42.8469 31.3168 42.857H31.2974C31.0629 42.857 30.9207 42.8155 30.8247 42.7185C30.7102 42.6031 30.6871 42.4323 30.6889 42.2116C30.6991 40.4803 30.6991 38.7203 30.6991 37.0185C30.6991 35.9428 30.6991 34.8301 30.7009 33.7359C30.7019 33.2539 30.5421 32.9686 30.182 32.8116C29.3427 32.445 28.5311 31.9704 27.7019 31.3619C27.5126 31.2225 27.315 31.1495 27.1322 31.1495C26.8921 31.1495 26.6779 31.2714 26.5154 31.5032C26.2412 31.8919 26.3317 32.3204 26.7573 32.6509C27.4452 33.1846 27.9992 33.5374 28.5532 33.795C28.953 33.9815 29.1082 34.2281 29.1063 34.6768C29.0971 36.5402 29.0971 38.435 29.0962 40.2679C29.0952 42.1045 29.0952 44.0039 29.086 45.8709C29.0832 46.4517 29.2577 46.7962 29.6686 47.0141H30.0703C30.5384 46.8026 30.7406 46.437 30.7046 45.8654C30.6991 45.7823 30.6908 45.6946 30.6806 45.6004C30.6409 45.2107 30.6003 44.8072 30.8007 44.5717C30.9539 44.3926 31.1838 44.3714 31.3436 44.3714C31.4756 44.3714 31.616 44.388 31.7517 44.4046C31.8837 44.4203 32.0093 44.4351 32.122 44.4351H32.1275C32.9299 44.4314 33.7443 44.4305 34.5051 44.4305H35.0213H35.5374C36.4977 44.4305 37.6149 44.4295 38.711 44.4212H38.7257C38.8836 44.4212 39.0609 44.4379 39.1726 44.5607C39.2834 44.6825 39.2825 44.8598 39.2687 45.0011C39.2548 45.1479 39.2585 45.2966 39.2631 45.4536C39.2677 45.6059 39.2714 45.7629 39.2585 45.9199C39.2123 46.4517 39.4145 46.7999 39.8938 47.0132H40.2945C40.7035 46.7906 40.8688 46.4545 40.867 45.8636C40.8568 43.6918 40.8559 41.484 40.8559 39.3491C40.8559 37.5882 40.855 35.7683 40.8494 33.9778C40.8485 33.5955 40.9759 33.361 41.2889 33.1671C41.9113 32.7821 42.5133 32.2982 43.1282 31.6888C45.6102 29.2252 46.8816 26.203 46.9056 22.7071ZM36.8135 28.5834C36.1699 29.2289 35.3075 29.5853 34.386 29.5853H34.3842C33.4627 29.5844 32.603 29.2261 31.9604 28.5761C31.3187 27.9269 30.9659 27.0589 30.9678 26.1328C30.9715 24.2648 32.4996 22.7329 34.374 22.7163H34.4035C36.2807 22.7163 37.8088 24.2565 37.8107 26.1485C37.8116 27.0728 37.4571 27.938 36.8135 28.5834Z" fill="white"/>
</svg>
