<svg width="49" height="19" viewBox="0 0 49 19" fill="none" xmlns="http://www.w3.org/2000/svg">
<g clip-path="url(#clip0_1_184)">
<path d="M24.4857 18.061C20.0066 18.061 15.5274 18.0393 11.0464 18.0465C8.80681 18.0501 6.56722 18.061 4.32763 18.0864C3.57159 18.0954 2.84051 17.9994 2.19146 17.5752C1.69218 17.2489 1.30703 16.7396 1.10732 16.1867C0.834505 15.4327 0.887998 14.6895 0.904046 13.892C0.925443 12.7591 0.934359 11.6244 0.934359 10.4915C0.934359 9.35856 0.92901 8.22385 0.921877 7.08915C0.914745 5.95444 0.87195 4.87774 0.916528 3.77747C0.971804 2.43068 1.73498 1.33585 3.042 1.03133C3.41289 0.944326 3.78378 0.942513 4.1618 0.942513C4.73774 0.942513 5.31547 0.942513 5.89142 0.942513C7.013 0.942513 8.13458 0.942513 9.25616 0.942513C13.7246 0.942513 18.1949 0.942513 22.6634 0.940701C27.1319 0.938888 31.6342 0.940701 36.1188 0.940701C38.3619 0.940701 40.6033 0.938888 42.8465 0.937075C43.4064 0.937075 43.9681 0.937075 44.528 0.937075C44.9595 0.937075 45.3945 0.915324 45.8189 1.00777C46.4662 1.14915 47.0546 1.49174 47.4701 2.02284C47.8856 2.55394 48.0817 3.19743 48.0995 3.84454C48.1281 4.93936 48.0603 6.04145 48.0478 7.13627C48.0229 9.40388 48.0282 11.6715 48.0817 13.9391C48.1013 14.7421 48.1691 15.5396 47.8606 16.2991C47.6199 16.89 47.1884 17.374 46.6427 17.684C45.9776 18.061 45.2608 18.1009 44.5155 18.0936C43.3975 18.0828 42.2794 18.0737 41.1614 18.0683C36.6876 18.0447 32.2155 18.061 27.7417 18.0683C26.6558 18.0683 25.5699 18.0719 24.4822 18.0719C23.908 18.0719 23.908 18.9782 24.4822 18.9782C29.1147 18.9782 33.7472 18.9564 38.3816 18.9655C39.5317 18.9673 40.6818 18.9728 41.8319 18.98C42.4078 18.9836 42.982 18.9873 43.5579 18.9927C44.0929 18.9981 44.6332 19.0271 45.1681 19.0018C46.7158 18.9293 48.1013 18.0791 48.6987 16.5964C49.0374 15.7535 48.9964 14.8798 48.975 13.9898C48.9465 12.8243 48.9323 11.6588 48.9269 10.4915C48.9216 9.32412 48.9269 8.12597 48.9412 6.94414C48.9483 6.36047 48.9572 5.77861 48.9679 5.19495C48.9768 4.68741 49.0196 4.17081 48.9822 3.66509C48.8663 2.08447 47.8802 0.701433 46.3735 0.221086C45.4195 -0.083436 44.3586 0.034385 43.3743 0.034385C42.2046 0.034385 41.0348 0.034385 39.8669 0.0361977C35.2379 0.0380103 30.6072 0.0398229 25.9782 0.0398229C21.3492 0.0398229 16.7185 0.0398229 12.0895 0.0398229C9.76613 0.0398229 7.44451 0.0398229 5.12111 0.0434482C4.21707 0.0434482 3.27202 -0.0308697 2.40543 0.282715C1.71358 0.534671 1.12872 0.969703 0.700771 1.57875C0.272823 2.18779 0.0713314 2.95635 0.0285366 3.70859C-0.0338724 4.84511 0.0249704 5.99975 0.0303197 7.13627C0.0428015 9.48363 0.0570664 11.8328 0.00713922 14.1802C-0.0106919 14.9868 -0.0106919 15.7698 0.288871 16.5311C0.561688 17.2272 1.00033 17.8181 1.60124 18.2586C2.24851 18.7335 3.0527 18.951 3.84262 18.9891C4.38647 19.0144 4.93745 18.9854 5.4813 18.98C6.05725 18.9746 6.63319 18.9709 7.20914 18.9673C11.8488 18.9383 16.4885 18.9564 21.1281 18.9637C22.2479 18.9655 23.3677 18.9673 24.4875 18.9673C25.0617 18.9673 25.0617 18.061 24.4875 18.061H24.4857Z" fill="#4C4C4C"/>
<path d="M36.5467 9.62133C36.2382 8.99597 35.9369 8.3688 35.6391 7.73801C35.4679 7.37729 35.295 7.01839 35.1184 6.65949C34.9615 6.34047 34.8189 5.99969 34.5817 5.73142C33.6349 4.66197 31.8179 5.66617 32.1282 7.04921C32.2102 7.41355 32.4295 7.76882 32.5864 8.10416C32.7433 8.4395 32.9109 8.80021 33.075 9.14823C33.4084 9.85697 33.7454 10.5639 34.0878 11.2672C34.2625 11.6261 34.4373 11.9832 34.6156 12.3403C34.7743 12.6593 34.9098 13.0091 35.1434 13.281C35.4893 13.6852 36.0653 13.8538 36.5681 13.6834C37.2867 13.4424 37.556 12.7626 37.852 12.1191C38.1979 11.3651 38.4921 10.582 38.9343 9.87872H38.164C38.476 10.5603 38.781 11.2454 39.0948 11.927C39.3605 12.5016 39.5816 13.1632 40.129 13.5257C40.5712 13.8194 41.1846 13.8357 41.6215 13.5221C41.8747 13.3408 42.0316 13.0998 42.1707 12.8242C42.349 12.469 42.5273 12.1137 42.702 11.7566C43.3903 10.3554 44.0501 8.94159 44.7045 7.52593C44.8632 7.18334 44.988 6.86976 44.9256 6.48548C44.8774 6.18277 44.7152 5.89637 44.4887 5.69336C44.0305 5.28552 43.3689 5.12963 42.8179 5.43597C42.5166 5.60454 42.2919 5.9 42.135 6.20452C41.9531 6.55798 41.7855 6.9187 41.6125 7.27579C41.2345 8.05703 40.8636 8.8419 40.4874 9.62314H41.2577C40.9564 8.96335 40.6514 8.30355 40.3537 7.64375C40.1094 7.10177 39.9239 6.42385 39.4532 6.03413C38.9825 5.64442 38.3174 5.58641 37.7931 5.88006C37.2386 6.19002 37.046 6.82807 36.7999 7.37548C36.4629 8.1241 36.117 8.86909 35.7764 9.61589C35.6748 9.83703 35.714 10.1035 35.9369 10.2358C36.1295 10.35 36.4451 10.2956 36.5467 10.0727C36.8819 9.33675 37.2225 8.60444 37.5542 7.86852C37.7004 7.54224 37.8163 7.15797 38.0231 6.86432C38.1497 6.68487 38.3013 6.60149 38.5242 6.60149C38.7471 6.60149 38.8933 6.69756 39.0181 6.87882C39.216 7.16522 39.3284 7.52955 39.4692 7.84495C39.8045 8.59176 40.1486 9.33494 40.4892 10.0799C40.6265 10.3808 41.1186 10.3718 41.2595 10.0799C41.5448 9.48538 41.8301 8.88903 42.1154 8.29448C42.4007 7.69994 42.6414 7.14709 42.9428 6.59424C43.0319 6.42929 43.1425 6.26434 43.319 6.19183C43.335 6.18639 43.4099 6.17189 43.442 6.17189C43.5098 6.17189 43.6096 6.19002 43.7006 6.23171C43.8379 6.29334 43.9734 6.40572 44.0305 6.55073C44.1178 6.77187 43.9752 6.98395 43.8807 7.18515C43.3243 8.38693 42.7627 9.5887 42.1849 10.7796C41.8961 11.376 41.6268 11.9995 41.2952 12.5723C41.2506 12.6502 41.2131 12.701 41.1418 12.7572C41.1115 12.7826 41.0598 12.8079 41.0223 12.8206C40.8993 12.8605 40.787 12.8496 40.6693 12.7898C40.4999 12.7028 40.3982 12.5669 40.3037 12.3838C40.1415 12.0702 39.9988 11.7457 39.8508 11.4267C39.5424 10.7579 39.2446 10.0854 38.9379 9.4165C38.7881 9.09023 38.3334 9.15367 38.1676 9.4165C37.8377 9.94035 37.6041 10.5005 37.3509 11.066C37.2225 11.356 37.0924 11.6442 36.9568 11.9306C36.8463 12.1663 36.7482 12.4545 36.5681 12.643C36.4558 12.759 36.3613 12.8188 36.1919 12.8406C36.2703 12.8297 36.0171 12.8224 36.0974 12.8369C35.9868 12.817 35.9726 12.8079 35.8941 12.7536C35.7764 12.672 35.673 12.449 35.5838 12.2732C35.4251 11.956 35.2682 11.6388 35.1113 11.3216C34.5247 10.1289 33.9559 8.92709 33.3942 7.72169C33.2676 7.45161 33.1124 7.17972 33.0144 6.89695C32.9555 6.73018 32.9716 6.56705 33.0786 6.42566C33.3139 6.11933 33.7169 6.08126 33.9523 6.36585C34.1431 6.59605 34.2572 6.92051 34.3891 7.18878C34.5585 7.53318 34.7244 7.8812 34.8884 8.22742C35.1809 8.84371 35.4751 9.45819 35.7782 10.0691C36.035 10.5911 36.8053 10.1325 36.5485 9.61227L36.5467 9.62133Z" fill="#4C4C4C"/>
<path d="M10.121 9.81715C10.4205 10.4751 10.7041 11.1404 11.0108 11.7965C11.2943 12.4001 11.5546 13.0328 12.1074 13.4297C12.3677 13.6164 12.6797 13.7306 12.9989 13.6762C13.3181 13.6219 13.5767 13.446 13.8049 13.243C14.297 12.8025 14.5681 12.0902 14.8444 11.4993C15.4757 10.147 16.1479 8.80932 16.7452 7.44079C17.0056 6.84443 16.9913 6.15926 16.4796 5.69885C16.0106 5.27832 15.3241 5.12606 14.7678 5.46864C14.4468 5.66622 14.2346 5.98162 14.0706 6.31696C13.8976 6.66861 13.7336 7.02569 13.5624 7.37916C13.2004 8.12959 12.8402 8.8782 12.48 9.62863H13.2503C12.9401 8.9489 12.6298 8.26735 12.3196 7.58761C12.0913 7.08732 11.9023 6.47284 11.5118 6.07225C11.0714 5.62091 10.3171 5.53571 9.77862 5.85473C9.274 6.15382 9.07785 6.7538 8.84605 7.26315C8.48764 8.05346 8.1221 8.84014 7.75835 9.62863H8.52865C8.20591 8.95433 7.88317 8.28004 7.55864 7.60755C7.38033 7.23596 7.20023 6.86437 7.02014 6.49278C6.87927 6.20276 6.71166 5.91274 6.48342 5.68435C6.04477 5.24569 5.46883 5.18044 4.92141 5.43783C4.40788 5.67891 4.08335 6.19007 4.11723 6.7683C4.15824 7.50242 4.60223 8.18578 4.91071 8.82926C5.26377 9.56519 5.61861 10.3011 5.96988 11.0389C6.1482 11.4141 6.32651 11.7893 6.50304 12.1663C6.63499 12.4455 6.75267 12.7409 6.92563 12.9983C7.29296 13.5494 7.88138 13.8448 8.53935 13.6889C9.24725 13.5222 9.52185 12.8225 9.7911 12.2189C10.1495 11.4141 10.5257 10.6183 10.8948 9.81715C10.9965 9.59601 10.9555 9.32774 10.7344 9.19723C10.5418 9.08303 10.2262 9.13741 10.1245 9.36036C9.84103 9.97666 9.55216 10.5911 9.27043 11.2092C9.1474 11.4775 9.02614 11.7476 8.90667 12.0177C8.81752 12.2225 8.71588 12.4708 8.58571 12.6304C8.36461 12.9004 7.97945 12.8769 7.76013 12.6267C7.62996 12.4781 7.53189 12.2624 7.44274 12.0721C7.29117 11.7494 7.13961 11.4268 6.98804 11.1041C6.3907 9.84252 5.77196 8.58999 5.17996 7.32659C5.08546 7.12358 5.00522 6.89518 5.00522 6.68673C5.00522 6.53628 5.03018 6.46015 5.14787 6.35321C5.19601 6.30971 5.2816 6.25533 5.37076 6.21907C5.36719 6.21907 5.55085 6.17376 5.48666 6.18101C5.65071 6.15926 5.71668 6.18463 5.8522 6.32239C6.05904 6.52903 6.18029 6.80637 6.30689 7.06739C6.47451 7.41179 6.64034 7.75619 6.80795 8.1024C7.12534 8.7622 7.44274 9.42381 7.75835 10.0836C7.89921 10.3754 8.38957 10.3827 8.52865 10.0836C8.89063 9.29511 9.25617 8.50843 9.61635 7.71812C9.75187 7.42085 9.86599 7.0982 10.0443 6.82449C10.1584 6.64867 10.3314 6.54535 10.5899 6.57435C10.811 6.59791 10.9145 6.72117 11.0232 6.9115C11.1784 7.18339 11.2925 7.48066 11.4226 7.76525C11.7757 8.53924 12.127 9.31142 12.48 10.0854C12.6173 10.3863 13.1095 10.3772 13.2503 10.0854C13.7817 8.98152 14.3024 7.87219 14.8409 6.77374C15.0067 6.43659 15.2385 6.05956 15.6433 6.21726C16.0481 6.37496 16.0908 6.73205 15.9232 7.10183C15.399 8.25647 14.8337 9.39118 14.3042 10.544C14.0474 11.1041 13.7906 11.6678 13.4839 12.2026C13.3698 12.402 13.2432 12.5705 13.0471 12.6956C12.8741 12.8062 12.8295 12.8134 12.669 12.721C12.4248 12.5814 12.2928 12.3603 12.1662 12.1174C12.02 11.8382 11.8809 11.5518 11.7472 11.2654C11.453 10.6346 11.1801 9.99297 10.8913 9.35855C10.7896 9.13741 10.4758 9.08122 10.2815 9.19541C10.0568 9.32774 10.0193 9.59238 10.121 9.81533V9.81715Z" fill="#4C4C4C"/>
<path d="M22.5332 9.63222C22.2016 8.94161 21.877 8.24918 21.5454 7.55857C21.3938 7.24136 21.2405 6.92596 21.0836 6.61238C20.9266 6.29879 20.7965 5.99065 20.5736 5.73325C19.6481 4.66199 17.8187 5.65712 18.1111 7.02747C18.186 7.3755 18.3875 7.70721 18.5373 8.02804C18.7049 8.39057 18.8743 8.75128 19.0437 9.112C19.3842 9.83342 19.7266 10.5549 20.0761 11.2708C20.2437 11.6152 20.4149 11.9596 20.5861 12.304C20.7465 12.6267 20.8874 12.982 21.1174 13.2629C21.4562 13.678 22.0304 13.852 22.5386 13.6943C23.2714 13.4659 23.5478 12.7681 23.8456 12.121C24.1915 11.3669 24.4875 10.5857 24.9262 9.88055H24.1559C24.4679 10.5603 24.771 11.2437 25.0849 11.9234C25.3505 12.4998 25.5734 13.1596 26.1191 13.5258C26.5595 13.8212 27.1729 13.843 27.6098 13.5312C27.863 13.3517 28.0199 13.1107 28.159 12.8351C28.339 12.4817 28.5156 12.1246 28.6903 11.7693C29.3786 10.37 30.0401 8.95611 30.6963 7.54045C30.855 7.19786 30.9816 6.88427 30.9228 6.49818C30.8764 6.19547 30.7177 5.90726 30.4913 5.70606C30.0312 5.29641 29.375 5.13327 28.8169 5.43598C28.5138 5.60093 28.2891 5.89458 28.134 6.1991C27.9521 6.55256 27.7845 6.91328 27.6115 7.27036C27.2335 8.05523 26.8591 8.84373 26.4828 9.63041H27.2531C26.9518 8.9688 26.6451 8.31081 26.3455 7.6492C26.1012 7.10904 25.9176 6.43112 25.4486 6.0414C24.9797 5.65168 24.3128 5.59368 23.7885 5.88551C23.234 6.19366 23.0414 6.83171 22.7953 7.38093C22.4566 8.13499 22.1071 8.88361 21.7647 9.63404C21.6631 9.85518 21.7023 10.1216 21.9252 10.254C22.1178 10.3682 22.4334 10.3138 22.535 10.0908C22.872 9.35126 23.2162 8.61534 23.5496 7.87397C23.6958 7.5477 23.8117 7.16342 24.0186 6.86977C24.1452 6.69032 24.2967 6.60694 24.5196 6.60875C24.7425 6.61057 24.8869 6.70301 25.0118 6.88609C25.2079 7.17248 25.3202 7.53501 25.4611 7.85222C25.7963 8.60084 26.144 9.3422 26.4828 10.089C26.6201 10.3899 27.1123 10.3808 27.2531 10.089C27.5402 9.49084 27.8255 8.89086 28.1126 8.29088C28.3836 7.72533 28.6386 7.14167 28.9382 6.59244C29.0273 6.4293 29.1397 6.26435 29.3144 6.19547C29.3911 6.16647 29.5159 6.1701 29.6496 6.22266C29.8066 6.28429 29.9653 6.40574 30.0259 6.56706C30.1097 6.78458 29.9635 7.00209 29.8707 7.2033C29.3126 8.40507 28.7527 9.60503 28.1732 10.7959C27.8844 11.3923 27.6151 12.0158 27.2817 12.5886C27.2424 12.6539 27.1961 12.7173 27.1551 12.7518C27.1087 12.7898 27.0463 12.8206 27.0106 12.8315C26.8876 12.8696 26.7753 12.8569 26.6576 12.7953C26.4882 12.7064 26.3848 12.5687 26.2902 12.3856C26.128 12.072 25.9853 11.7494 25.8373 11.4285C25.5289 10.7615 25.2311 10.0908 24.9262 9.42196C24.7782 9.0975 24.3199 9.15913 24.1559 9.42196C23.8296 9.94581 23.5942 10.5059 23.3428 11.0715C23.2144 11.3615 23.0842 11.6497 22.9487 11.9361C22.8381 12.1717 22.7418 12.4599 22.56 12.6484C22.4476 12.7644 22.3513 12.8243 22.1837 12.8478C22.2568 12.837 22.0179 12.8315 22.0892 12.8442C21.9929 12.8261 21.9288 12.7971 21.8949 12.7717C21.7166 12.6412 21.6363 12.4037 21.5347 12.2007C21.3813 11.898 21.2316 11.5935 21.08 11.289C20.4862 10.0836 19.9103 8.86729 19.3432 7.6492C19.1756 7.28668 18.7851 6.76827 19.0811 6.41661C19.1935 6.28248 19.3807 6.19185 19.5501 6.17735C19.7195 6.16285 19.8336 6.23354 19.9441 6.37311C20.1171 6.59425 20.2259 6.8879 20.3507 7.13985C20.5076 7.45525 20.6592 7.77065 20.8125 8.08786C21.1317 8.7531 21.4455 9.42196 21.7647 10.0872C21.8699 10.3065 22.1784 10.3663 22.3745 10.2503C22.5956 10.1198 22.6402 9.85155 22.535 9.63041L22.5332 9.63222Z" fill="#4C4C4C"/>
</g>
<defs>
<clipPath id="clip0_1_184">
<rect width="49" height="19" fill="white"/>
</clipPath>
</defs>
</svg>
