<svg width="18" height="21" viewBox="0 0 18 21" fill="none" xmlns="http://www.w3.org/2000/svg">
<path d="M9.00011 12.149H9.00029C9.94898 12.1479 10.8585 11.7705 11.5293 11.0996C12.2002 10.4288 12.5775 9.5193 12.5787 8.5706V8.57042C12.5787 7.86264 12.3688 7.17076 11.9756 6.58227C11.5824 5.99378 11.0235 5.5351 10.3696 5.26425C9.71567 4.9934 8.99614 4.92253 8.30196 5.06061C7.60779 5.19869 6.97015 5.53951 6.46967 6.03999C5.9692 6.54046 5.62838 7.1781 5.4903 7.87227C5.35222 8.56645 5.42308 9.28598 5.69394 9.93988C5.96479 10.5938 6.42347 11.1527 7.01196 11.5459C7.60045 11.9391 8.29233 12.149 9.00011 12.149ZM7.94055 6.98469C8.25414 6.77515 8.62281 6.6633 8.99996 6.66328C9.50565 6.66378 9.99048 6.86489 10.3481 7.22247C10.7056 7.58004 10.9067 8.06488 10.9072 8.57057C10.9072 8.94771 10.7954 9.31638 10.5858 9.62997C10.3763 9.9436 10.0784 10.188 9.72994 10.3324C9.38145 10.4767 8.99799 10.5145 8.62804 10.4409C8.25809 10.3673 7.91827 10.1857 7.65155 9.91897C7.38483 9.65225 7.2032 9.31243 7.12961 8.94248C7.05602 8.57253 7.09379 8.18907 7.23814 7.84059C7.38248 7.4921 7.62693 7.19425 7.94055 6.98469Z" fill="#4C4C4C" stroke="#4C4C4C" stroke-width="0.3"/>
<path d="M9 20.2247L8.88788 20.0985L2.75261 13.1951L2.7488 13.1908L2.74888 13.1908C2.66311 13.0865 2.57823 12.9815 2.49424 12.8759M9 20.2247L2.61164 12.7826M9 20.2247L9.11212 20.0985L15.2495 13.1924L15.1374 13.0927L15.2496 13.1924L15.2495 13.1924C15.2691 13.1704 15.3352 13.0886 15.3921 13.0178L15.4709 12.9196L15.4961 12.888L15.5031 12.8792L15.505 12.8769L15.5054 12.8763L15.5056 12.8762L15.5056 12.8761L15.5056 12.8761L15.3884 12.7826L15.5056 12.8761L15.5215 12.8561L15.5224 12.8538C16.5805 11.5149 17.1526 9.88192 17.15 8.20273M9 20.2247L15.3891 12.7805C16.4366 11.4639 17.0025 9.85588 17 8.20297M2.49424 12.8759L2.61164 12.7826M2.49424 12.8759C2.49425 12.8759 2.49426 12.8759 2.49427 12.876L2.61164 12.7826M2.49424 12.8759C1.42551 11.5327 0.847441 9.89112 0.850009 8.20285C0.85004 6.13647 1.71049 4.15624 3.23961 2.69734C4.76851 1.23864 6.8407 0.420312 9 0.420312C11.1593 0.420312 13.2315 1.23864 14.7604 2.69734C16.2895 4.15621 17.1499 6.1364 17.15 8.20273M2.61164 12.7826C1.56363 11.4654 0.997468 9.85663 1.00001 8.20297C1.00001 6.17866 1.84286 4.23727 3.34315 2.80587C4.84344 1.37446 6.87827 0.570312 9 0.570312C11.1217 0.570312 13.1566 1.37446 14.6568 2.80587C16.1571 4.23727 17 6.17866 17 8.20297M17.15 8.20273L17 8.20297M17.15 8.20273C17.15 8.20281 17.15 8.20289 17.15 8.20297H17M15.3954 8.20297L15.3954 8.20315C15.3971 9.51952 14.9463 10.8009 14.111 11.851L14.1109 11.8511L14.109 11.8534L14.1033 11.8606L14.0834 11.8857L14.0212 11.9639C13.9751 12.0219 13.9276 12.0814 13.9118 12.1004L9 17.6276L4.09463 12.1079C4.076 12.0856 4.02707 12.0244 3.98009 11.9655L3.91724 11.8868L3.89652 11.861L3.88935 11.8523L3.8872 11.8498C3.05273 10.7999 2.60307 9.51905 2.60455 8.20314V8.20297C2.60455 6.58883 3.27656 5.0393 4.47521 3.89568C5.67411 2.75184 7.30161 2.10807 9 2.10807C10.6984 2.10807 12.3259 2.75184 13.5248 3.89568C14.7234 5.0393 15.3954 6.58883 15.3954 8.20297Z" fill="#4C4C4C" stroke="#4C4C4C" stroke-width="0.3"/>
</svg>

