<svg width="20" height="20" viewBox="0 0 20 20" fill="none" xmlns="http://www.w3.org/2000/svg">
<path d="M5.11115 2.4943C5.04474 2.40887 4.96091 2.33855 4.86524 2.288C4.76956 2.23746 4.66422 2.20786 4.55623 2.20115C4.44823 2.19445 4.34004 2.2108 4.23885 2.24912C4.13766 2.28745 4.04578 2.34686 3.96931 2.42342L2.8061 3.58777C2.26274 4.13226 2.0625 4.90286 2.29986 5.57897C3.28504 8.37744 4.88761 10.9182 6.98872 13.0128C9.08332 15.1139 11.6241 16.7165 14.4225 17.7017C15.0986 17.939 15.8692 17.7388 16.4137 17.1954L17.5769 16.0322C17.6534 15.9557 17.7129 15.8639 17.7512 15.7627C17.7895 15.6615 17.8059 15.5533 17.7992 15.4453C17.7925 15.3373 17.7628 15.232 17.7123 15.1363C17.6618 15.0406 17.5914 14.9568 17.506 14.8904L14.9107 12.8722C14.8195 12.8014 14.7133 12.7522 14.6003 12.7285C14.4872 12.7047 14.3703 12.7069 14.2582 12.7349L11.7946 13.3503C11.4657 13.4325 11.1212 13.4281 10.7945 13.3376C10.4679 13.2471 10.1702 13.0736 9.9305 12.8339L7.16759 10.0699C6.92771 9.83028 6.75397 9.53267 6.66328 9.20599C6.57259 8.87932 6.56805 8.53473 6.6501 8.20578L7.26658 5.74209C7.2946 5.63004 7.29681 5.51309 7.27303 5.40006C7.24926 5.28703 7.20012 5.18088 7.12934 5.08961L5.11115 2.4943ZM3.11996 1.57519C3.31683 1.37827 3.55333 1.22547 3.81377 1.12696C4.07422 1.02845 4.35264 0.986469 4.63055 1.00381C4.90846 1.02115 5.1795 1.09742 5.42567 1.22755C5.67184 1.35768 5.88752 1.53869 6.05837 1.75856L8.07656 4.35275C8.44667 4.82861 8.57717 5.44847 8.43092 6.03346L7.81557 8.49715C7.78375 8.62475 7.78547 8.75842 7.82056 8.88516C7.85564 9.01191 7.9229 9.12743 8.01581 9.22051L10.7798 11.9846C10.873 12.0777 10.9887 12.145 11.1157 12.1801C11.2427 12.2152 11.3766 12.2168 11.5043 12.1848L13.9669 11.5694C14.2556 11.4973 14.5569 11.4917 14.848 11.5531C15.1392 11.6144 15.4126 11.7412 15.6476 11.9238L18.2417 13.942C19.1743 14.6676 19.2598 16.0457 18.4251 16.8793L17.2619 18.0425C16.4294 18.875 15.1852 19.2406 14.0254 18.8323C11.0568 17.7878 8.36148 16.0883 6.13937 13.8599C3.91114 11.6381 2.21168 8.94315 1.16702 5.97496C0.759787 4.81624 1.1254 3.57089 1.95787 2.73841L3.12109 1.57519H3.11996Z" fill="#4C4C4C" stroke="#4C4C4C"/>
</svg>
