<svg width="20" height="20" viewBox="0 0 20 20" fill="none" xmlns="http://www.w3.org/2000/svg">
<g clip-path="url(#clip0_1210_2525)">
<path d="M18.3388 13.3416C17.2879 11.844 15.8314 10.7214 14.1272 10.0954C13.6994 9.93847 13.2627 9.8232 12.8384 9.72833C14.484 8.68116 15.4399 6.75617 15.2296 4.63257C15.108 3.40806 14.5133 2.26069 13.5547 1.39972C12.6014 0.544075 11.3721 0.0484193 10.0931 0.00319852C7.51466 -0.0890164 5.23889 1.82267 4.80131 4.44902C4.5661 5.85973 4.89361 7.21547 5.74925 8.37082C6.14866 8.90992 6.61908 9.35681 7.14809 9.70084C6.89601 9.75581 6.64305 9.8232 6.39541 9.9101C2.53707 11.2525 0.391773 14.0057 0.0180994 18.0897C-0.0236172 18.5455 -0.0227296 19.121 0.353607 19.5333C0.729944 19.9456 1.30066 19.9979 1.75599 19.9979C3.91461 19.9979 6.07322 19.9979 8.23094 19.9979H10.5857H12.6964C13.3994 19.9979 14.1032 19.9979 14.8062 19.9979C16.0027 19.9979 17.1991 19.9979 18.3956 19.9952C18.9202 19.9952 19.3284 19.848 19.608 19.5607C19.8787 19.2823 20.011 18.8948 19.9986 18.4089C19.9533 16.5771 19.379 14.8241 18.3379 13.3398L18.3388 13.3416ZM9.99813 8.51003H9.99458C8.20343 8.50825 6.73802 7.0603 6.72737 5.2825C6.72204 4.42597 7.06021 3.61111 7.67975 2.98866C8.30461 2.36089 9.12829 2.01508 9.99901 2.01508H10.0008C10.8724 2.01508 11.697 2.36355 12.3227 2.99575C12.9414 3.62086 13.2769 4.43484 13.268 5.28782C13.2494 7.06562 11.7831 8.51003 9.99813 8.51003ZM9.33332 11.4902C10.5467 11.4556 11.6916 11.4237 12.8144 11.7438C15.6237 12.5453 17.7326 15.0972 17.9722 17.9692H2.02493C2.0631 17.4008 2.1989 16.8076 2.44121 16.139C3.422 13.4338 6.00931 11.57 8.87977 11.5026C9.03066 11.499 9.18155 11.4946 9.33244 11.4902H9.33332Z" fill="#00448A"/>
</g>
<defs>
<clipPath id="clip0_1210_2525">
<rect width="20" height="20" fill="white"/>
</clipPath>
</defs>
</svg>