<svg width="19" height="15" viewBox="0 0 19 15" fill="none" xmlns="http://www.w3.org/2000/svg">
<path d="M1.9 15C1.3775 15 0.930051 14.8162 0.557651 14.4487C0.185251 14.0812 -0.00063172 13.64 1.6129e-06 13.125V1.875C1.6129e-06 1.35938 0.186202 0.917814 0.558602 0.550314C0.931001 0.182814 1.37813 -0.000623408 1.9 1.59168e-06H17.1C17.6225 1.59168e-06 18.0699 0.183751 18.4423 0.551251C18.8147 0.918751 19.0006 1.36 19 1.875V13.125C19 13.6406 18.8138 14.0822 18.4414 14.4497C18.069 14.8172 17.6219 15.0006 17.1 15H1.9ZM9.5 8.4375L1.9 3.75V13.125H17.1V3.75L9.5 8.4375ZM9.5 6.5625L17.1 1.875H1.9L9.5 6.5625ZM1.9 3.75V1.875V13.125V3.75Z" fill="#009FE3"/>
</svg>